<?xml version="1.0" standalone="no"?>
<!DOCTYPE svg PUBLIC "-//W3C//DTD SVG 20010904//EN"
 "http://www.w3.org/TR/2001/REC-SVG-20010904/DTD/svg10.dtd">
<svg version="1.0" xmlns="http://www.w3.org/2000/svg"
 width="1024.000000pt" height="1024.000000pt" viewBox="0 0 1024.000000 1024.000000"
 preserveAspectRatio="xMidYMid meet">

<g transform="translate(0.000000,1024.000000) scale(0.100000,-0.100000)"
fill="#000000" stroke="none">
<path d="M1146 10229 c-556 -65 -992 -461 -1118 -1017 -21 -96 -22 -111 -25
-997 l-3 -900 887 -515 c489 -283 913 -523 943 -533 79 -27 197 -25 274 3 33
13 838 471 1790 1018 952 547 1755 1006 1783 1019 65 30 147 39 209 24 51 -13
423 -219 466 -259 53 -48 63 -149 20 -209 -14 -19 -652 -392 -2109 -1230
-1149 -661 -2109 -1211 -2133 -1222 -110 -49 -235 -45 -354 12 -79 37 -101 50
-1088 624 -373 216 -680 393 -683 393 -3 0 -4 -192 -3 -426 l3 -426 885 -514
c652 -379 903 -520 954 -536 81 -24 192 -21 266 8 25 9 828 467 1785 1017 957
550 1763 1011 1790 1023 62 30 177 32 242 6 87 -36 425 -237 446 -266 27 -38
34 -123 14 -162 -8 -16 -26 -38 -39 -50 -29 -26 -4143 -2394 -4224 -2431 -51
-24 -72 -27 -159 -28 -141 0 -46 -50 -1315 688 -322 187 -600 348 -618 359
l-32 20 0 -429 0 -428 878 -509 c482 -281 904 -521 937 -535 78 -32 203 -33
285 -4 30 11 523 289 1095 618 572 329 1357 780 1744 1003 387 222 725 414
750 425 57 26 178 29 231 7 55 -23 413 -229 437 -252 50 -47 56 -152 12 -208
-17 -21 -673 -404 -2084 -1216 -1133 -653 -2092 -1202 -2131 -1220 -117 -57
-222 -63 -341 -20 -46 16 -249 132 -1191 680 -337 196 -615 356 -618 356 -3 0
-3 -420 -1 -932 3 -920 4 -934 25 -1030 119 -523 503 -899 1027 -1005 86 -17
265 -18 4065 -18 3800 0 3979 1 4065 18 533 108 924 499 1032 1032 17 86 18
265 18 4065 0 3800 -1 3979 -18 4065 -106 524 -480 906 -1005 1027 l-97 23
-3950 1 c-2172 1 -3981 -2 -4019 -7z"/>
</g>
</svg>
